<?xml version="1.0" encoding="UTF-8"?>
<svg id="Ebene_1" data-name="Ebene 1" xmlns="http://www.w3.org/2000/svg" viewBox="0 0 96.3 107.65">
  <defs>
    <style>
      .cls-1 {
        fill: #fff;
      }

      .cls-2 {
        fill: none;
      }
    </style>
  </defs>
  <g id="Grundfläche">
    <rect class="cls-2" x="2.85" y="16.95" width="90.71" height="90.71"/>
  </g>
  <g id="Flächige_Fülung" data-name="Flächige Fülung">
    <circle class="cls-1" cx="48.2" cy="62.3" r="34.02"/>
  </g>
  <g id="Takt_Zeichen_umgewandelt_" data-name="Takt Zeichen (umgewandelt)">
    <path d="M48.2,27.58c-19.15,0-34.72,15.58-34.72,34.72s15.58,34.72,34.72,34.72,34.72-15.58,34.72-34.72-15.58-34.72-34.72-34.72ZM81.49,61.59h-32.58V29.01c17.8.38,32.21,14.78,32.58,32.58ZM47.49,29.01v32.58H14.91c.38-17.8,14.78-32.21,32.58-32.58ZM14.91,63.01h32.58v15.59h-10.63v1.42h10.63v15.57c-17.8-.38-32.2-14.78-32.58-32.58ZM48.91,95.59v-15.57h10.63v-1.42h-10.63v-15.59h32.58c-.38,17.8-14.78,32.21-32.58,32.58Z"/>
  </g>
  <g id="Takt_Zeichen_umgewandelt_1" data-name="Takt Zeichen (umgewandelt)1">
    <polygon points="95.2 42.6 48.1 2.3 1.1 42.6 0 41.3 48.1 0 96.3 41.3 95.2 42.6"/>
  </g>
</svg>